<svg xmlns="http://www.w3.org/2000/svg" width="500" height="500" viewBox="0 0 500 500" version="1.1"><path d="M 308.355 30.139 C 299.831 31.621, 288.588 39.056, 285.280 45.398 C 282.941 49.883, 282.112 55.554, 283.133 60.094 C 283.884 63.439, 283.688 64.502, 281.870 66.962 C 278.653 71.313, 278.282 78.495, 280.980 84.233 C 284.163 91.006, 285.184 91.557, 288.843 88.479 L 291.909 85.899 289.958 82.699 C 288.139 79.716, 287.319 74.014, 288.535 72.798 C 288.829 72.504, 290.418 73.522, 292.064 75.060 C 296.509 79.212, 303.033 81.393, 308.922 80.696 C 318.570 79.553, 330.645 71.483, 334.331 63.715 C 336.285 59.597, 336.531 50.326, 334.793 46.297 C 329.450 33.911, 319.974 28.120, 308.355 30.139 M 309.324 40.464 C 299.799 43.387, 292 50.666, 292 56.634 C 292 64.535, 297.871 71.011, 305 70.974 C 309.001 70.953, 315.924 68.058, 320.723 64.398 C 326.993 59.615, 328.729 52.348, 325.044 46.304 C 321.460 40.426, 316.026 38.407, 309.324 40.464 M 167.500 42.162 C 159.834 46.383, 154 56.008, 154 64.432 C 154 69.151, 154.438 70.429, 157.091 73.451 C 158.965 75.585, 161.749 77.394, 164.156 78.042 C 170.337 79.706, 174.438 77.843, 182.134 69.871 C 187.013 64.818, 189.461 63, 191.384 63 C 194.509 63, 198 66.193, 198 69.050 C 198 73.917, 192.578 80.349, 186.802 82.335 C 184.938 82.976, 183.248 83.725, 183.047 84 C 182.845 84.275, 183.237 86.188, 183.917 88.250 C 185.356 92.610, 187.165 92.985, 192.790 90.092 C 200.875 85.933, 207 76.057, 207 67.180 C 207 61.947, 206.766 61.433, 202.537 57.381 C 194.327 49.514, 187.588 50.404, 177.738 60.655 C 169.811 68.905, 168.567 69.602, 165.433 67.548 C 160.567 64.360, 164.028 53.926, 170.970 50.853 C 174.452 49.312, 174.498 49.128, 172.551 44.468 C 170.980 40.709, 170.521 40.499, 167.500 42.162 M 333.057 82.501 C 316.971 91.363, 313.745 93.702, 311.405 98.200 C 306.552 107.527, 314.759 125.455, 325.505 129.002 C 331.039 130.828, 336.406 128.997, 354.167 119.222 L 369.836 110.599 367.932 106.867 C 366.885 104.815, 365.665 102.911, 365.221 102.637 C 364.777 102.362, 357.523 105.978, 349.101 110.671 C 332.957 119.667, 329.289 120.730, 324.720 117.736 C 323.333 116.827, 321.394 113.980, 320.412 111.409 C 318.679 106.872, 318.684 106.630, 320.563 103.199 C 322.140 100.322, 325.289 98.120, 337.500 91.361 C 345.750 86.794, 352.894 82.913, 353.376 82.737 C 354.359 82.377, 350.376 74, 349.223 74 C 348.818 74, 341.544 77.825, 333.057 82.501 M 134.156 95.691 L 131.171 101.603 148.165 120.552 C 157.512 130.973, 165.746 140.107, 166.464 140.849 C 167.550 141.971, 168.195 141.482, 170.309 137.938 L 172.849 133.679 168.924 129.025 C 166.766 126.466, 165 124.020, 165 123.590 C 165 123.160, 167.030 119.083, 169.512 114.530 L 174.024 106.253 180.252 107.553 C 183.678 108.268, 186.527 108.773, 186.584 108.676 C 189.217 104.178, 191.255 99.928, 190.928 99.618 C 190.693 99.396, 179.700 97.332, 166.500 95.031 C 153.300 92.730, 141.294 90.607, 139.820 90.313 C 137.379 89.826, 136.876 90.303, 134.156 95.691 M 150.018 108.750 C 153.987 113.013, 157.519 116.607, 157.867 116.737 C 158.215 116.867, 159.984 114.274, 161.797 110.974 C 164.176 106.643, 164.733 104.854, 163.797 104.547 C 161.236 103.705, 146.745 101, 144.794 101 C 143.255 101, 144.440 102.759, 150.018 108.750 M 111.437 136.537 C 106.103 146.182, 101.910 154.205, 102.120 154.368 C 104.420 156.154, 107.650 158, 108.473 157.998 C 109.038 157.996, 110.816 155.477, 112.424 152.399 C 114.032 149.322, 115.859 146.608, 116.483 146.368 C 117.108 146.128, 125.324 150.225, 134.742 155.472 C 144.160 160.719, 152.543 165.271, 153.370 165.589 C 155.524 166.415, 159.778 158.114, 157.840 156.868 C 157.103 156.394, 148.738 151.700, 139.250 146.435 C 129.762 141.171, 122 136.387, 122 135.804 C 122 135.221, 123.421 132.260, 125.158 129.224 C 128.221 123.870, 128.259 123.661, 126.408 122.279 C 121.206 118.393, 121.767 117.859, 111.437 136.537 M 353.806 140.932 C 340.225 141.274, 328.860 141.807, 328.551 142.116 C 328.242 142.425, 329.004 144.546, 330.245 146.830 L 332.500 150.984 339.500 150.998 L 346.500 151.013 350.415 158.201 C 353.599 164.048, 354.066 165.549, 352.915 166.244 C 352.137 166.714, 349.818 168.097, 347.762 169.317 L 344.025 171.536 351.115 184.518 C 361.604 203.722, 360.370 202.268, 364.509 200.294 C 366.429 199.379, 368 198.318, 368 197.938 C 368 197.557, 365.328 192.461, 362.062 186.612 L 356.125 175.977 360.312 173.844 C 362.616 172.671, 365.468 171.079, 366.650 170.306 C 368.719 168.954, 369.001 169.263, 374.051 178.405 C 379.588 188.428, 379.509 188.381, 384.408 184.721 C 386.257 183.340, 386.214 183.114, 383.012 177.398 C 381.195 174.154, 378.862 170.078, 377.828 168.339 L 375.947 165.179 381.472 162.187 L 386.996 159.194 392.650 169.347 C 395.759 174.931, 398.457 179.685, 398.646 179.911 C 399.076 180.427, 406.017 176.733, 405.951 176.023 C 405.924 175.735, 401.516 167.625, 396.155 158 L 386.408 140.500 382.454 140.405 C 380.279 140.353, 367.388 140.590, 353.806 140.932 M 357.380 150.619 C 356.272 151.075, 360.789 160.973, 362.113 160.992 C 362.986 161.004, 381 150.916, 381 150.415 C 381 149.850, 358.784 150.041, 357.380 150.619 M 95.505 168.250 C 92.459 171.107, 81 189.844, 81 191.967 C 81 192.818, 124.130 217.006, 125.622 216.992 C 126.105 216.987, 127.466 215.204, 128.647 213.029 C 131.142 208.431, 131.580 208.969, 120.500 202.996 C 116.100 200.623, 112.351 198.567, 112.169 198.427 C 111.615 197.999, 114.125 193.638, 116.299 191.250 C 118.751 188.558, 122.029 188.403, 132.022 190.505 C 135.957 191.332, 139.593 191.752, 140.102 191.437 C 140.612 191.122, 141.916 189.125, 143 187 L 144.971 183.136 139.236 182.019 C 136.081 181.404, 132.375 180.688, 131 180.428 C 126.920 179.655, 121.656 179.651, 119.250 180.418 C 117.177 181.079, 117 180.826, 117 177.202 C 117 170.323, 110.908 165, 103.035 165 C 99.827 165, 98.240 165.685, 95.505 168.250 M 98.827 176.750 C 96.911 179.011, 93 185.864, 93 186.962 C 93 187.717, 103.234 194, 104.465 194 C 105.405 194, 110.981 183.494, 110.991 181.705 C 111.017 176.627, 102.033 172.968, 98.827 176.750 M 67.099 216.688 C 62.631 224.766, 59.319 231.715, 59.738 232.129 C 60.966 233.343, 104.136 257.204, 104.437 256.835 C 106.297 254.565, 120.901 226.649, 120.538 226.061 C 119.924 225.069, 114.067 222.588, 113.582 223.115 C 113.387 223.327, 110.666 228.102, 107.535 233.727 L 101.843 243.954 96.671 241.358 C 88.538 237.276, 88.654 237.866, 94.077 228.206 C 96.764 223.418, 98.972 219.174, 98.982 218.776 C 98.992 218.377, 97.570 217.312, 95.822 216.408 C 92.059 214.462, 92.200 214.329, 85.927 225.753 L 81.945 233.006 77.043 230.522 C 74.347 229.156, 71.938 227.692, 71.689 227.269 C 71.440 226.846, 73.651 222.225, 76.603 217 C 79.554 211.775, 81.976 207.035, 81.984 206.466 C 81.998 205.557, 76.997 202, 75.706 202 C 75.440 202, 71.566 208.610, 67.099 216.688 M 405.768 205.059 C 403.716 206.142, 401.353 208.350, 400.518 209.965 C 398.594 213.685, 398.591 221.082, 400.511 227.409 C 403.243 236.416, 401.635 241, 395.743 241 C 390.200 241, 386.508 234.167, 387.325 225.421 L 387.903 219.231 384.827 218.615 C 379.659 217.582, 379.116 217.857, 377.975 222.092 C 376.004 229.412, 378.963 238.633, 385.664 246.050 C 392.178 253.260, 400.992 253.244, 408.227 246.008 C 411.531 242.704, 412 241.645, 412 237.488 C 412 234.877, 411.030 229.200, 409.844 224.872 C 407.759 217.266, 407.748 216.936, 409.499 215.002 C 414.827 209.114, 423.865 218.463, 422.788 228.748 C 422.519 231.321, 422.774 231.520, 426.717 231.806 C 430.521 232.082, 430.997 231.861, 431.577 229.549 C 433.515 221.828, 426.019 207.577, 418.329 204.364 C 413.892 202.510, 410.209 202.714, 405.768 205.059 M 418.947 252.542 C 405.546 259.958, 396.629 265.475, 396.819 266.232 C 397.134 267.485, 407.432 286.461, 411.207 292.744 C 413.234 296.119, 413.856 296.124, 418.295 292.804 C 419.978 291.545, 419.744 290.827, 414.545 281.347 C 411.495 275.785, 409.005 270.844, 409.012 270.367 C 409.018 269.890, 411.702 268.029, 414.976 266.231 L 420.927 262.962 424.919 270.231 C 431.201 281.673, 431.059 281.538, 434.822 279.592 C 436.570 278.688, 437.992 277.623, 437.982 277.224 C 437.972 276.826, 435.764 272.582, 433.076 267.793 L 428.189 259.086 433.344 256.127 C 439.422 252.638, 438.749 252.154, 445.697 265 C 448.226 269.675, 450.411 273.646, 450.554 273.824 C 450.783 274.108, 456.914 271.260, 457.859 270.431 C 458.171 270.156, 447.515 250.339, 443.006 242.810 L 441.395 240.120 418.947 252.542 M 49.077 251.750 C 46.493 254.156, 35.680 272.354, 34.817 275.749 C 34.631 276.481, 43.780 282.131, 56.958 289.422 L 79.415 301.847 81.192 298.925 C 87.172 289.092, 94 274.588, 94 271.719 C 94 261.123, 81.148 253.564, 72.303 258.957 L 69.105 260.907 68.490 258.703 C 66.578 251.859, 62.917 249, 56.065 249 C 53.048 249, 51.287 249.693, 49.077 251.750 M 51.771 260.750 C 50.328 262.392, 46 270.367, 46 271.385 C 46 271.641, 48.487 273.197, 51.527 274.843 L 57.053 277.836 60.017 272.668 C 61.647 269.826, 62.985 266.288, 62.991 264.807 C 63.008 259.812, 55.107 256.956, 51.771 260.750 M 72.835 267.033 C 71.419 267.859, 64 279.857, 64 281.321 C 64 281.769, 76.616 289, 77.397 289 C 77.578 289, 79.411 285.681, 81.470 281.624 C 85.736 273.219, 85.601 270.947, 80.661 267.935 C 77.155 265.797, 75.315 265.585, 72.835 267.033 M 440.500 292.048 C 428.950 298.572, 419.106 304.061, 418.624 304.247 C 417.359 304.734, 421.794 313, 423.320 313 C 424.024 313, 425.028 312.616, 425.550 312.146 C 426.072 311.676, 429.944 309.418, 434.153 307.129 L 441.806 302.967 443.979 307.456 C 445.344 310.276, 445.900 312.739, 445.475 314.079 C 445.103 315.252, 441.900 319.370, 438.357 323.230 C 434.815 327.090, 432.059 330.530, 432.234 330.874 C 432.409 331.218, 433.415 333.196, 434.470 335.269 C 435.525 337.341, 436.735 338.916, 437.160 338.769 C 439.283 338.030, 451.953 322.492, 452.513 319.940 C 453.163 316.983, 454.373 316.176, 455.477 317.963 C 455.804 318.493, 457.631 319.356, 459.536 319.882 C 464.423 321.232, 469.236 319.634, 472.918 315.441 C 477.941 309.720, 477.359 305.136, 469.857 291.316 C 466.479 285.092, 463.216 280.042, 462.607 280.094 C 461.998 280.146, 452.050 285.525, 440.500 292.048 M 24.614 293.191 C 21.622 298.208, 19.610 296.434, 42.500 308.960 C 51.850 314.077, 61.401 319.365, 63.724 320.712 L 67.948 323.160 70.163 318.602 C 71.381 316.095, 72.180 313.885, 71.939 313.691 C 71.467 313.312, 32.948 292.025, 29.309 290.132 C 27.327 289.102, 26.878 289.394, 24.614 293.191 M 454.500 295.977 C 451.750 297.596, 449.508 299.276, 449.517 299.710 C 449.553 301.323, 453.857 308.563, 455.853 310.369 C 459.516 313.681, 467 310.231, 467 305.230 C 467 302.272, 462.131 292.993, 460.591 293.017 C 459.991 293.026, 457.250 294.358, 454.500 295.977 M 4.250 329.956 C 3.012 332.123, 2 334.113, 2 334.377 C 2 335.094, 45.399 359, 46.701 359 C 47.676 359, 63 332.382, 63 330.689 C 63 329.629, 57.009 326.877, 56.025 327.484 C 55.521 327.796, 52.798 332.326, 49.972 337.552 L 44.835 347.052 39.668 344.130 C 30.974 339.214, 6.946 326, 6.716 326.008 C 6.597 326.012, 5.488 327.789, 4.250 329.956 M 464.533 337.645 C 450.801 340.095, 439.394 342.273, 439.182 342.484 C 438.971 342.696, 439.846 344.734, 441.128 347.014 C 443.454 351.152, 443.465 351.157, 447.979 350.431 C 456.211 349.106, 455.874 348.911, 461.026 357.980 L 465.844 366.460 461.451 371.156 L 457.058 375.852 459.664 380.514 C 462.183 385.021, 462.328 385.115, 464.059 383.338 C 468.680 378.595, 498.999 344.461, 498.991 344.010 C 498.985 343.730, 497.626 341.137, 495.970 338.250 C 494.076 334.947, 492.318 333.035, 491.230 333.095 C 490.278 333.147, 478.265 335.195, 464.533 337.645 M 474.796 345.228 L 465.092 347.239 468.060 353.120 C 469.693 356.354, 471.398 359, 471.850 359 C 473.066 359, 486 345.378, 486 344.097 C 486 343.494, 485.663 343.049, 485.250 343.108 C 484.837 343.168, 480.133 344.122, 474.796 345.228 M 118 424 L 118 428 125.500 428 L 133 428 133 450 L 133 472 138.500 472 L 144 472 144 450 L 144 428 151.500 428 L 159 428 159 424 L 159 420 138.500 420 L 118 420 118 424 M 178.500 421.204 C 176.876 425.656, 161.003 471.556, 161.001 471.802 C 161.001 471.969, 163.327 471.969, 166.171 471.802 L 171.343 471.500 173.255 465.750 L 175.167 460 185.425 460 L 195.683 460 197.500 466 L 199.317 472 204.658 472 C 207.596 472, 209.998 471.887, 209.995 471.750 C 209.992 471.613, 206.010 460.025, 201.146 446 L 192.303 420.500 185.638 420.204 C 180.870 419.992, 178.838 420.277, 178.500 421.204 M 218 446 L 218 472 222.500 472 L 227 472 227 454.300 C 227 443.808, 227.366 436.987, 227.898 437.550 C 228.391 438.072, 231.397 446.038, 234.577 455.250 L 240.360 472 244.571 472 L 248.782 472 253.889 457.431 C 256.698 449.418, 259.272 441.764, 259.609 440.422 C 261.249 433.887, 262 438.290, 262 454.441 L 262 472 267 472 L 272 472 272 446 L 272 420 265.250 420.003 L 258.500 420.007 252 439 C 248.425 449.446, 245.235 457.995, 244.910 457.997 C 244.586 457.998, 241.436 449.452, 237.910 439.004 L 231.500 420.008 224.750 420.004 L 218 420 218 446 M 286 446 L 286 472 303.557 472 L 321.115 472 320.807 467.750 L 320.500 463.500 308.250 463.219 L 296 462.938 296 455.969 L 296 449 306.500 449 L 317 449 317 445 L 317 441 306.500 441 L 296 441 296 434.500 L 296 428 308 428 L 320 428 320 424 L 320 420 303 420 L 286 420 286 446 M 331 446 L 331 472 335.500 472 L 340 472 340 454.559 C 340 444.966, 340.378 436.884, 340.840 436.599 C 341.302 436.313, 346.590 444.049, 352.590 453.790 L 363.500 471.500 368.750 471.802 L 374 472.105 374 446.052 L 374 420 369.024 420 L 364.048 420 363.774 436.750 L 363.500 453.500 353 436.751 L 342.500 420.002 336.750 420.001 L 331 420 331 446 M 181.365 441.022 L 178.229 451 185.115 451 C 188.902 451, 191.995 450.663, 191.988 450.250 C 191.956 448.286, 186.077 431.528, 185.340 431.302 C 184.878 431.160, 183.089 435.534, 181.365 441.022" stroke="none" fill="#ffffff" fill-rule="evenodd"/><path d="M 145.343 221.560 L 42.186 405 248.593 405 C 362.117 405, 455 404.732, 455 404.405 C 455 403.498, 250.892 40.672, 249.615 39.310 C 248.779 38.418, 222.694 84.010, 145.343 221.560 M 336.232 55 C 336.232 56.925, 336.438 57.712, 336.689 56.750 C 336.941 55.788, 336.941 54.212, 336.689 53.250 C 336.438 52.288, 336.232 53.075, 336.232 55 M 370.250 140.716 C 371.762 140.945, 374.238 140.945, 375.750 140.716 C 377.262 140.487, 376.025 140.300, 373 140.300 C 369.975 140.300, 368.738 140.487, 370.250 140.716 M 329.750 141.706 C 330.988 141.944, 333.012 141.944, 334.250 141.706 C 335.488 141.467, 334.475 141.272, 332 141.272 C 329.525 141.272, 328.512 141.467, 329.750 141.706 M 360.768 150.725 C 362.565 150.947, 365.265 150.943, 366.768 150.715 C 368.271 150.486, 366.800 150.304, 363.500 150.310 C 360.200 150.315, 358.971 150.502, 360.768 150.725 M 285.437 446 C 285.437 460.575, 285.577 466.538, 285.747 459.250 C 285.918 451.962, 285.918 440.038, 285.747 432.750 C 285.577 425.462, 285.437 431.425, 285.437 446 M 330.437 446 C 330.437 460.575, 330.577 466.538, 330.747 459.250 C 330.918 451.962, 330.918 440.038, 330.747 432.750 C 330.577 425.462, 330.437 431.425, 330.437 446 M 340.413 454.500 C 340.414 464.400, 340.564 468.315, 340.746 463.199 C 340.928 458.084, 340.927 449.984, 340.744 445.199 C 340.561 440.415, 340.412 444.600, 340.413 454.500 M 301.287 440.740 C 304.469 440.939, 309.419 440.937, 312.287 440.736 C 315.154 440.535, 312.550 440.372, 306.500 440.374 C 300.450 440.376, 298.104 440.541, 301.287 440.740" stroke="none" fill="#ff3933" fill-rule="evenodd"/></svg>